<?xml version="1.0" encoding="UTF-8"?>
<!-- Generated by Pixelmator Pro 3.4.3 -->
<svg width="1604" height="1604" viewBox="0 0 1604 1604" xmlns="http://www.w3.org/2000/svg">
    <path id="rectangle-0" fill="none" stroke="#000000" stroke-width="4" d="M 2 102 L 102 102 L 102 2 L 2 2 Z"/>
    <path id="rectangle-1" fill="none" stroke="#000000" stroke-width="4" d="M 102 102 L 202 102 L 202 2 L 102 2 Z"/>
    <path id="rectangle-2" fill="none" stroke="#000000" stroke-width="4" d="M 202 102 L 302 102 L 302 2 L 202 2 Z"/>
    <path id="rectangle-3" fill="none" stroke="#000000" stroke-width="4" d="M 302 102 L 402 102 L 402 2 L 302 2 Z"/>
    <path id="rectangle-4" fill="none" stroke="#000000" stroke-width="4" d="M 402 102 L 502 102 L 502 2 L 402 2 Z"/>
    <path id="rectangle-5" fill="none" stroke="#000000" stroke-width="4" d="M 502 102 L 602 102 L 602 2 L 502 2 Z"/>
    <path id="rectangle-6" fill="none" stroke="#000000" stroke-width="4" d="M 602 102 L 702 102 L 702 2 L 602 2 Z"/>
    <path id="rectangle-7" fill="none" stroke="#000000" stroke-width="4" d="M 702 102 L 802 102 L 802 2 L 702 2 Z"/>
    <path id="rectangle-15" fill="none" stroke="#000000" stroke-width="4" d="M 2 202 L 102 202 L 102 102 L 2 102 Z"/>
    <path id="rectangle-14" fill="none" stroke="#000000" stroke-width="4" d="M 102 202 L 202 202 L 202 102 L 102 102 Z"/>
    <path id="rectangle-13" fill="none" stroke="#000000" stroke-width="4" d="M 202 202 L 302 202 L 302 102 L 202 102 Z"/>
    <path id="rectangle-12" fill="none" stroke="#000000" stroke-width="4" d="M 302 202 L 402 202 L 402 102 L 302 102 Z"/>
    <path id="rectangle-11" fill="none" stroke="#000000" stroke-width="4" d="M 402 202 L 502 202 L 502 102 L 402 102 Z"/>
    <path id="rectangle-10" fill="none" stroke="#000000" stroke-width="4" d="M 502 202 L 602 202 L 602 102 L 502 102 Z"/>
    <path id="rectangle-9" fill="none" stroke="#000000" stroke-width="4" d="M 602 202 L 702 202 L 702 102 L 602 102 Z"/>
    <path id="rectangle-8" fill="none" stroke="#000000" stroke-width="4" d="M 702 202 L 802 202 L 802 102 L 702 102 Z"/>
    <path id="rectangle-23" fill="none" stroke="#000000" stroke-width="4" d="M 2 302 L 102 302 L 102 202 L 2 202 Z"/>
    <path id="rectangle-22" fill="none" stroke="#000000" stroke-width="4" d="M 102 302 L 202 302 L 202 202 L 102 202 Z"/>
    <path id="rectangle-21" fill="none" stroke="#000000" stroke-width="4" d="M 202 302 L 302 302 L 302 202 L 202 202 Z"/>
    <path id="rectangle-20" fill="none" stroke="#000000" stroke-width="12" d="M 302 302 L 402 302 L 402 202 L 302 202 Z"/>
    <path id="rectangle-19" fill="none" stroke="#000000" stroke-width="12" d="M 402 302 L 502 302 L 502 202 L 402 202 Z"/>
    <path id="rectangle-18" fill="none" stroke="#000000" stroke-width="12" d="M 502 302 L 602 302 L 602 202 L 502 202 Z"/>
    <path id="rectangle-17" fill="none" stroke="#000000" stroke-width="4" d="M 602 302 L 702 302 L 702 202 L 602 202 Z"/>
    <path id="rectangle-16" fill="none" stroke="#000000" stroke-width="4" d="M 702 302 L 802 302 L 802 202 L 702 202 Z"/>
    <path id="rectangle-31" fill="none" stroke="#000000" stroke-width="4" d="M 2 402 L 102 402 L 102 302 L 2 302 Z"/>
    <path id="rectangle-30" fill="none" stroke="#000000" stroke-width="4" d="M 102 402 L 202 402 L 202 302 L 102 302 Z"/>
    <path id="rectangle-29" fill="none" stroke="#000000" stroke-width="12" d="M 202 402 L 302 402 L 302 302 L 202 302 Z"/>
    <path id="rectangle-28" fill="none" stroke="#000000" stroke-width="12" d="M 302 402 L 402 402 L 402 302 L 302 302 Z"/>
    <path id="rectangle-27" fill="none" stroke="#000000" stroke-width="12" d="M 402 402 L 502 402 L 502 302 L 402 302 Z"/>
    <path id="rectangle-26" fill="none" stroke="#000000" stroke-width="4" d="M 502 402 L 602 402 L 602 302 L 502 302 Z"/>
    <path id="rectangle-25" fill="none" stroke="#000000" stroke-width="4" d="M 602 402 L 702 402 L 702 302 L 602 302 Z"/>
    <path id="rectangle-24" fill="none" stroke="#000000" stroke-width="4" d="M 702 402 L 802 402 L 802 302 L 702 302 Z"/>
    <path id="rectangle-63" fill="none" stroke="#000000" stroke-width="4" d="M 2 502 L 102 502 L 102 402 L 2 402 Z"/>
    <path id="rectangle-62" fill="none" stroke="#000000" stroke-width="4" d="M 102 502 L 202 502 L 202 402 L 102 402 Z"/>
    <path id="rectangle-61" fill="none" stroke="#000000" stroke-width="4" d="M 202 502 L 302 502 L 302 402 L 202 402 Z"/>
    <path id="rectangle-60" fill="none" stroke="#000000" stroke-width="4" d="M 302 502 L 402 502 L 402 402 L 302 402 Z"/>
    <path id="rectangle-59" fill="none" stroke="#000000" stroke-width="4" d="M 402 502 L 502 502 L 502 402 L 402 402 Z"/>
    <path id="rectangle-58" fill="none" stroke="#000000" stroke-width="4" d="M 502 502 L 602 502 L 602 402 L 502 402 Z"/>
    <path id="rectangle-57" fill="none" stroke="#000000" stroke-width="4" d="M 602 502 L 702 502 L 702 402 L 602 402 Z"/>
    <path id="rectangle-56" fill="none" stroke="#000000" stroke-width="4" d="M 702 502 L 802 502 L 802 402 L 702 402 Z"/>
    <path id="rectangle-55" fill="none" stroke="#000000" stroke-width="4" d="M 2 602 L 102 602 L 102 502 L 2 502 Z"/>
    <path id="rectangle-54" fill="none" stroke="#000000" stroke-width="4" d="M 102 602 L 202 602 L 202 502 L 102 502 Z"/>
    <path id="rectangle-53" fill="none" stroke="#000000" stroke-width="4" d="M 202 602 L 302 602 L 302 502 L 202 502 Z"/>
    <path id="rectangle-52" fill="none" stroke="#000000" stroke-width="4" d="M 302 602 L 402 602 L 402 502 L 302 502 Z"/>
    <path id="rectangle-51" fill="none" stroke="#000000" stroke-width="4" d="M 402 602 L 502 602 L 502 502 L 402 502 Z"/>
    <path id="rectangle-50" fill="none" stroke="#000000" stroke-width="4" d="M 502 602 L 602 602 L 602 502 L 502 502 Z"/>
    <path id="rectangle-49" fill="none" stroke="#000000" stroke-width="4" d="M 602 602 L 702 602 L 702 502 L 602 502 Z"/>
    <path id="rectangle-48" fill="none" stroke="#000000" stroke-width="4" d="M 702 602 L 802 602 L 802 502 L 702 502 Z"/>
    <path id="rectangle-47" fill="none" stroke="#000000" stroke-width="4" d="M 2 702 L 102 702 L 102 602 L 2 602 Z"/>
    <path id="rectangle-46" fill="none" stroke="#000000" stroke-width="4" d="M 102 702 L 202 702 L 202 602 L 102 602 Z"/>
    <path id="rectangle-45" fill="none" stroke="#000000" stroke-width="4" d="M 202 702 L 302 702 L 302 602 L 202 602 Z"/>
    <path id="rectangle-44" fill="none" stroke="#000000" stroke-width="4" d="M 302 702 L 402 702 L 402 602 L 302 602 Z"/>
    <path id="rectangle-43" fill="none" stroke="#000000" stroke-width="4" d="M 402 702 L 502 702 L 502 602 L 402 602 Z"/>
    <path id="rectangle-42" fill="none" stroke="#000000" stroke-width="4" d="M 502 702 L 602 702 L 602 602 L 502 602 Z"/>
    <path id="rectangle-41" fill="none" stroke="#000000" stroke-width="4" d="M 602 702 L 702 702 L 702 602 L 602 602 Z"/>
    <path id="rectangle-40" fill="none" stroke="#000000" stroke-width="4" d="M 702 702 L 802 702 L 802 602 L 702 602 Z"/>
    <path id="rectangle-39" fill="none" stroke="#000000" stroke-width="4" d="M 2 802 L 102 802 L 102 702 L 2 702 Z"/>
    <path id="rectangle-38" fill="none" stroke="#000000" stroke-width="4" d="M 102 802 L 202 802 L 202 702 L 102 702 Z"/>
    <path id="rectangle-37" fill="none" stroke="#000000" stroke-width="4" d="M 202 802 L 302 802 L 302 702 L 202 702 Z"/>
    <path id="rectangle-36" fill="none" stroke="#000000" stroke-width="4" d="M 302 802 L 402 802 L 402 702 L 302 702 Z"/>
    <path id="rectangle-35" fill="none" stroke="#000000" stroke-width="4" d="M 402 802 L 502 802 L 502 702 L 402 702 Z"/>
    <path id="rectangle-34" fill="none" stroke="#000000" stroke-width="4" d="M 502 802 L 602 802 L 602 702 L 502 702 Z"/>
    <path id="rectangle-33" fill="none" stroke="#000000" stroke-width="4" d="M 602 802 L 702 802 L 702 702 L 602 702 Z"/>
    <path id="rectangle-32" fill="none" stroke="#000000" stroke-width="4" d="M 702 802 L 802 802 L 802 702 L 702 702 Z"/>
    <path id="rectangle-127" fill="none" stroke="#000000" stroke-width="4" d="M 802 102 L 902 102 L 902 2 L 802 2 Z"/>
    <path id="rectangle-126" fill="none" stroke="#000000" stroke-width="4" d="M 902 102 L 1002 102 L 1002 2 L 902 2 Z"/>
    <path id="rectangle-125" fill="none" stroke="#000000" stroke-width="4" d="M 1002 102 L 1102 102 L 1102 2 L 1002 2 Z"/>
    <path id="rectangle-124" fill="none" stroke="#000000" stroke-width="4" d="M 1102 102 L 1202 102 L 1202 2 L 1102 2 Z"/>
    <path id="rectangle-123" fill="none" stroke="#000000" stroke-width="4" d="M 1202 102 L 1302 102 L 1302 2 L 1202 2 Z"/>
    <path id="rectangle-122" fill="none" stroke="#000000" stroke-width="12" d="M 1302 102 L 1402 102 L 1402 2 L 1302 2 Z"/>
    <path id="rectangle-121" fill="none" stroke="#000000" stroke-width="12" d="M 1402 102 L 1502 102 L 1502 2 L 1402 2 Z"/>
    <path id="rectangle-120" fill="none" stroke="#000000" stroke-width="12" d="M 1502 102 L 1602 102 L 1602 2 L 1502 2 Z"/>
    <path id="rectangle-119" fill="none" stroke="#000000" stroke-width="4" d="M 802 202 L 902 202 L 902 102 L 802 102 Z"/>
    <path id="rectangle-118" fill="none" stroke="#000000" stroke-width="4" d="M 902 202 L 1002 202 L 1002 102 L 902 102 Z"/>
    <path id="rectangle-117" fill="none" stroke="#000000" stroke-width="4" d="M 1002 202 L 1102 202 L 1102 102 L 1002 102 Z"/>
    <path id="rectangle-116" fill="none" stroke="#000000" stroke-width="4" d="M 1102 202 L 1202 202 L 1202 102 L 1102 102 Z"/>
    <path id="rectangle-115" fill="none" stroke="#000000" stroke-width="4" d="M 1202 202 L 1302 202 L 1302 102 L 1202 102 Z"/>
    <path id="rectangle-114" fill="none" stroke="#000000" stroke-width="4" d="M 1302 202 L 1402 202 L 1402 102 L 1302 102 Z"/>
    <path id="rectangle-113" fill="none" stroke="#000000" stroke-width="12" d="M 1402 202 L 1502 202 L 1502 102 L 1402 102 Z"/>
    <path id="rectangle-112" fill="none" stroke="#000000" stroke-width="12" d="M 1502 202 L 1602 202 L 1602 102 L 1502 102 Z"/>
    <path id="rectangle-111" fill="none" stroke="#000000" stroke-width="4" d="M 802 302 L 902 302 L 902 202 L 802 202 Z"/>
    <path id="rectangle-110" fill="none" stroke="#000000" stroke-width="4" d="M 902 302 L 1002 302 L 1002 202 L 902 202 Z"/>
    <path id="rectangle-109" fill="none" stroke="#000000" stroke-width="4" d="M 1002 302 L 1102 302 L 1102 202 L 1002 202 Z"/>
    <path id="rectangle-108" fill="none" stroke="#000000" stroke-width="4" d="M 1102 302 L 1202 302 L 1202 202 L 1102 202 Z"/>
    <path id="rectangle-107" fill="none" stroke="#000000" stroke-width="4" d="M 1202 302 L 1302 302 L 1302 202 L 1202 202 Z"/>
    <path id="rectangle-106" fill="none" stroke="#000000" stroke-width="4" d="M 1302 302 L 1402 302 L 1402 202 L 1302 202 Z"/>
    <path id="rectangle-105" fill="none" stroke="#000000" stroke-width="4" d="M 1402 302 L 1502 302 L 1502 202 L 1402 202 Z"/>
    <path id="rectangle-104" fill="none" stroke="#000000" stroke-width="12" d="M 1502 302 L 1602 302 L 1602 202 L 1502 202 Z"/>
    <path id="rectangle-103" fill="none" stroke="#000000" stroke-width="12" d="M 802 402 L 902 402 L 902 302 L 802 302 Z"/>
    <path id="rectangle-102" fill="none" stroke="#000000" stroke-width="12" d="M 902 402 L 1002 402 L 1002 302 L 902 302 Z"/>
    <path id="rectangle-101" fill="none" stroke="#000000" stroke-width="4" d="M 1002 402 L 1102 402 L 1102 302 L 1002 302 Z"/>
    <path id="rectangle-100" fill="none" stroke="#000000" stroke-width="4" d="M 1102 402 L 1202 402 L 1202 302 L 1102 302 Z"/>
    <path id="rectangle-99" fill="none" stroke="#000000" stroke-width="4" d="M 1202 402 L 1302 402 L 1302 302 L 1202 302 Z"/>
    <path id="rectangle-98" fill="none" stroke="#000000" stroke-width="4" d="M 1302 402 L 1402 402 L 1402 302 L 1302 302 Z"/>
    <path id="rectangle-97" fill="none" stroke="#000000" stroke-width="4" d="M 1402 402 L 1502 402 L 1502 302 L 1402 302 Z"/>
    <path id="rectangle-96" fill="none" stroke="#000000" stroke-width="4" d="M 1502 402 L 1602 402 L 1602 302 L 1502 302 Z"/>
    <path id="rectangle-95" fill="none" stroke="#000000" stroke-width="4" d="M 802 502 L 902 502 L 902 402 L 802 402 Z"/>
    <path id="rectangle-94" fill="none" stroke="#000000" stroke-width="4" d="M 902 502 L 1002 502 L 1002 402 L 902 402 Z"/>
    <path id="rectangle-93" fill="none" stroke="#000000" stroke-width="4" d="M 1002 502 L 1102 502 L 1102 402 L 1002 402 Z"/>
    <path id="rectangle-92" fill="none" stroke="#000000" stroke-width="4" d="M 1102 502 L 1202 502 L 1202 402 L 1102 402 Z"/>
    <path id="rectangle-91" fill="none" stroke="#000000" stroke-width="4" d="M 1202 502 L 1302 502 L 1302 402 L 1202 402 Z"/>
    <path id="rectangle-90" fill="none" stroke="#000000" stroke-width="4" d="M 1302 502 L 1402 502 L 1402 402 L 1302 402 Z"/>
    <path id="rectangle-89" fill="none" stroke="#000000" stroke-width="4" d="M 1402 502 L 1502 502 L 1502 402 L 1402 402 Z"/>
    <path id="rectangle-88" fill="none" stroke="#000000" stroke-width="4" d="M 1502 502 L 1602 502 L 1602 402 L 1502 402 Z"/>
    <path id="rectangle-87" fill="none" stroke="#000000" stroke-width="4" d="M 802 602 L 902 602 L 902 502 L 802 502 Z"/>
    <path id="rectangle-86" fill="none" stroke="#000000" stroke-width="4" d="M 902 602 L 1002 602 L 1002 502 L 902 502 Z"/>
    <path id="rectangle-85" fill="none" stroke="#000000" stroke-width="4" d="M 1002 602 L 1102 602 L 1102 502 L 1002 502 Z"/>
    <path id="rectangle-84" fill="none" stroke="#000000" stroke-width="4" d="M 1102 602 L 1202 602 L 1202 502 L 1102 502 Z"/>
    <path id="rectangle-83" fill="none" stroke="#000000" stroke-width="4" d="M 1202 602 L 1302 602 L 1302 502 L 1202 502 Z"/>
    <path id="rectangle-82" fill="none" stroke="#000000" stroke-width="4" d="M 1302 602 L 1402 602 L 1402 502 L 1302 502 Z"/>
    <path id="rectangle-81" fill="none" stroke="#000000" stroke-width="4" d="M 1402 602 L 1502 602 L 1502 502 L 1402 502 Z"/>
    <path id="rectangle-80" fill="none" stroke="#000000" stroke-width="4" d="M 1502 602 L 1602 602 L 1602 502 L 1502 502 Z"/>
    <path id="rectangle-79" fill="none" stroke="#000000" stroke-width="4" d="M 802 702 L 902 702 L 902 602 L 802 602 Z"/>
    <path id="rectangle-78" fill="none" stroke="#000000" stroke-width="4" d="M 902 702 L 1002 702 L 1002 602 L 902 602 Z"/>
    <path id="rectangle-77" fill="none" stroke="#000000" stroke-width="4" d="M 1002 702 L 1102 702 L 1102 602 L 1002 602 Z"/>
    <path id="rectangle-76" fill="none" stroke="#000000" stroke-width="4" d="M 1102 702 L 1202 702 L 1202 602 L 1102 602 Z"/>
    <path id="rectangle-75" fill="none" stroke="#000000" stroke-width="4" d="M 1202 702 L 1302 702 L 1302 602 L 1202 602 Z"/>
    <path id="rectangle-74" fill="none" stroke="#000000" stroke-width="4" d="M 1302 702 L 1402 702 L 1402 602 L 1302 602 Z"/>
    <path id="rectangle-73" fill="none" stroke="#000000" stroke-width="4" d="M 1402 702 L 1502 702 L 1502 602 L 1402 602 Z"/>
    <path id="rectangle-72" fill="none" stroke="#000000" stroke-width="4" d="M 1502 702 L 1602 702 L 1602 602 L 1502 602 Z"/>
    <path id="rectangle-71" fill="none" stroke="#000000" stroke-width="4" d="M 802 802 L 902 802 L 902 702 L 802 702 Z"/>
    <path id="rectangle-70" fill="none" stroke="#000000" stroke-width="4" d="M 902 802 L 1002 802 L 1002 702 L 902 702 Z"/>
    <path id="rectangle-69" fill="none" stroke="#000000" stroke-width="4" d="M 1002 802 L 1102 802 L 1102 702 L 1002 702 Z"/>
    <path id="rectangle-68" fill="none" stroke="#000000" stroke-width="4" d="M 1102 802 L 1202 802 L 1202 702 L 1102 702 Z"/>
    <path id="rectangle-67" fill="none" stroke="#000000" stroke-width="4" d="M 1202 802 L 1302 802 L 1302 702 L 1202 702 Z"/>
    <path id="rectangle-66" fill="none" stroke="#000000" stroke-width="4" d="M 1302 802 L 1402 802 L 1402 702 L 1302 702 Z"/>
    <path id="rectangle-65" fill="none" stroke="#000000" stroke-width="4" d="M 1402 802 L 1502 802 L 1502 702 L 1402 702 Z"/>
    <path id="rectangle-64" fill="none" stroke="#000000" stroke-width="4" d="M 1502 802 L 1602 802 L 1602 702 L 1502 702 Z"/>
    <path id="rectangle-191" fill="none" stroke="#000000" stroke-width="4" d="M 802 902 L 902 902 L 902 802 L 802 802 Z"/>
    <path id="rectangle-190" fill="none" stroke="#000000" stroke-width="4" d="M 902 902 L 1002 902 L 1002 802 L 902 802 Z"/>
    <path id="rectangle-189" fill="none" stroke="#000000" stroke-width="4" d="M 1002 902 L 1102 902 L 1102 802 L 1002 802 Z"/>
    <path id="rectangle-188" fill="none" stroke="#000000" stroke-width="4" d="M 1102 902 L 1202 902 L 1202 802 L 1102 802 Z"/>
    <path id="rectangle-187" fill="none" stroke="#000000" stroke-width="4" d="M 1202 902 L 1302 902 L 1302 802 L 1202 802 Z"/>
    <path id="rectangle-186" fill="none" stroke="#000000" stroke-width="4" d="M 1302 902 L 1402 902 L 1402 802 L 1302 802 Z"/>
    <path id="rectangle-185" fill="none" stroke="#000000" stroke-width="4" d="M 1402 902 L 1502 902 L 1502 802 L 1402 802 Z"/>
    <path id="rectangle-184" fill="none" stroke="#000000" stroke-width="4" d="M 1502 902 L 1602 902 L 1602 802 L 1502 802 Z"/>
    <path id="rectangle-183" fill="none" stroke="#000000" stroke-width="4" d="M 802 1002 L 902 1002 L 902 902 L 802 902 Z"/>
    <path id="rectangle-182" fill="none" stroke="#000000" stroke-width="4" d="M 902 1002 L 1002 1002 L 1002 902 L 902 902 Z"/>
    <path id="rectangle-181" fill="none" stroke="#000000" stroke-width="4" d="M 1002 1002 L 1102 1002 L 1102 902 L 1002 902 Z"/>
    <path id="rectangle-180" fill="none" stroke="#000000" stroke-width="4" d="M 1102 1002 L 1202 1002 L 1202 902 L 1102 902 Z"/>
    <path id="rectangle-179" fill="none" stroke="#000000" stroke-width="4" d="M 1202 1002 L 1302 1002 L 1302 902 L 1202 902 Z"/>
    <path id="rectangle-178" fill="none" stroke="#000000" stroke-width="4" d="M 1302 1002 L 1402 1002 L 1402 902 L 1302 902 Z"/>
    <path id="rectangle-177" fill="none" stroke="#000000" stroke-width="4" d="M 1402 1002 L 1502 1002 L 1502 902 L 1402 902 Z"/>
    <path id="rectangle-176" fill="none" stroke="#000000" stroke-width="4" d="M 1502 1002 L 1602 1002 L 1602 902 L 1502 902 Z"/>
    <path id="rectangle-175" fill="none" stroke="#000000" stroke-width="4" d="M 802 1102 L 902 1102 L 902 1002 L 802 1002 Z"/>
    <path id="rectangle-174" fill="none" stroke="#000000" stroke-width="4" d="M 902 1102 L 1002 1102 L 1002 1002 L 902 1002 Z"/>
    <path id="rectangle-173" fill="none" stroke="#000000" stroke-width="4" d="M 1002 1102 L 1102 1102 L 1102 1002 L 1002 1002 Z"/>
    <path id="rectangle-172" fill="none" stroke="#000000" stroke-width="4" d="M 1102 1102 L 1202 1102 L 1202 1002 L 1102 1002 Z"/>
    <path id="rectangle-171" fill="none" stroke="#000000" stroke-width="4" d="M 1202 1102 L 1302 1102 L 1302 1002 L 1202 1002 Z"/>
    <path id="rectangle-170" fill="none" stroke="#000000" stroke-width="4" d="M 1302 1102 L 1402 1102 L 1402 1002 L 1302 1002 Z"/>
    <path id="rectangle-169" fill="none" stroke="#000000" stroke-width="4" d="M 1402 1102 L 1502 1102 L 1502 1002 L 1402 1002 Z"/>
    <path id="rectangle-168" fill="none" stroke="#000000" stroke-width="4" d="M 1502 1102 L 1602 1102 L 1602 1002 L 1502 1002 Z"/>
    <path id="rectangle-167" fill="none" stroke="#000000" stroke-width="12" d="M 802 1202 L 902 1202 L 902 1102 L 802 1102 Z"/>
    <path id="rectangle-166" fill="none" stroke="#000000" stroke-width="4" d="M 902 1202 L 1002 1202 L 1002 1102 L 902 1102 Z"/>
    <path id="rectangle-165" fill="none" stroke="#000000" stroke-width="4" d="M 1002 1202 L 1102 1202 L 1102 1102 L 1002 1102 Z"/>
    <path id="rectangle-164" fill="none" stroke="#000000" stroke-width="4" d="M 1102 1202 L 1202 1202 L 1202 1102 L 1102 1102 Z"/>
    <path id="rectangle-163" fill="none" stroke="#000000" stroke-width="4" d="M 1202 1202 L 1302 1202 L 1302 1102 L 1202 1102 Z"/>
    <path id="rectangle-162" fill="none" stroke="#000000" stroke-width="4" d="M 1302 1202 L 1402 1202 L 1402 1102 L 1302 1102 Z"/>
    <path id="rectangle-161" fill="none" stroke="#000000" stroke-width="4" d="M 1402 1202 L 1502 1202 L 1502 1102 L 1402 1102 Z"/>
    <path id="rectangle-160" fill="none" stroke="#000000" stroke-width="4" d="M 1502 1202 L 1602 1202 L 1602 1102 L 1502 1102 Z"/>
    <path id="rectangle-159" fill="none" stroke="#000000" stroke-width="12" d="M 802 1302 L 902 1302 L 902 1202 L 802 1202 Z"/>
    <path id="rectangle-158" fill="none" stroke="#000000" stroke-width="12" d="M 902 1302 L 1002 1302 L 1002 1202 L 902 1202 Z"/>
    <path id="rectangle-157" fill="none" stroke="#000000" stroke-width="12" d="M 1002 1302 L 1102 1302 L 1102 1202 L 1002 1202 Z"/>
    <path id="rectangle-156" fill="none" stroke="#000000" stroke-width="12" d="M 1102 1302 L 1202 1302 L 1202 1202 L 1102 1202 Z"/>
    <path id="rectangle-155" fill="none" stroke="#000000" stroke-width="12" d="M 1202 1302 L 1302 1302 L 1302 1202 L 1202 1202 Z"/>
    <path id="rectangle-154" fill="none" stroke="#000000" stroke-width="12" d="M 1302 1302 L 1402 1302 L 1402 1202 L 1302 1202 Z"/>
    <path id="rectangle-153" fill="none" stroke="#000000" stroke-width="12" d="M 1402 1302 L 1502 1302 L 1502 1202 L 1402 1202 Z"/>
    <path id="rectangle-152" fill="none" stroke="#000000" stroke-width="4" d="M 1502 1302 L 1602 1302 L 1602 1202 L 1502 1202 Z"/>
    <path id="rectangle-151" fill="none" stroke="#000000" stroke-width="12" d="M 802 1402 L 902 1402 L 902 1302 L 802 1302 Z"/>
    <path id="rectangle-150" fill="none" stroke="#000000" stroke-width="4" d="M 902 1402 L 1002 1402 L 1002 1302 L 902 1302 Z"/>
    <path id="rectangle-149" fill="none" stroke="#000000" stroke-width="4" d="M 1002 1402 L 1102 1402 L 1102 1302 L 1002 1302 Z"/>
    <path id="rectangle-148" fill="none" stroke="#000000" stroke-width="4" d="M 1102 1402 L 1202 1402 L 1202 1302 L 1102 1302 Z"/>
    <path id="rectangle-147" fill="none" stroke="#000000" stroke-width="4" d="M 1202 1402 L 1302 1402 L 1302 1302 L 1202 1302 Z"/>
    <path id="rectangle-146" fill="none" stroke="#000000" stroke-width="4" d="M 1302 1402 L 1402 1402 L 1402 1302 L 1302 1302 Z"/>
    <path id="rectangle-145" fill="none" stroke="#000000" stroke-width="12" d="M 1402 1402 L 1502 1402 L 1502 1302 L 1402 1302 Z"/>
    <path id="rectangle-144" fill="none" stroke="#000000" stroke-width="4" d="M 1502 1402 L 1602 1402 L 1602 1302 L 1502 1302 Z"/>
    <path id="rectangle-143" fill="none" stroke="#000000" stroke-width="12" d="M 802 1502 L 902 1502 L 902 1402 L 802 1402 Z"/>
    <path id="rectangle-142" fill="none" stroke="#000000" stroke-width="4" d="M 902 1502 L 1002 1502 L 1002 1402 L 902 1402 Z"/>
    <path id="rectangle-141" fill="none" stroke="#000000" stroke-width="12" d="M 1002 1502 L 1102 1502 L 1102 1402 L 1002 1402 Z"/>
    <path id="rectangle-140" fill="none" stroke="#000000" stroke-width="12" d="M 1102 1502 L 1202 1502 L 1202 1402 L 1102 1402 Z"/>
    <path id="rectangle-139" fill="none" stroke="#000000" stroke-width="12" d="M 1202 1502 L 1302 1502 L 1302 1402 L 1202 1402 Z"/>
    <path id="rectangle-138" fill="none" stroke="#000000" stroke-width="4" d="M 1302 1502 L 1402 1502 L 1402 1402 L 1302 1402 Z"/>
    <path id="rectangle-137" fill="none" stroke="#000000" stroke-width="12" d="M 1402 1502 L 1502 1502 L 1502 1402 L 1402 1402 Z"/>
    <path id="rectangle-136" fill="none" stroke="#000000" stroke-width="4" d="M 1502 1502 L 1602 1502 L 1602 1402 L 1502 1402 Z"/>
    <path id="rectangle-135" fill="none" stroke="#000000" stroke-width="12" d="M 802 1602 L 902 1602 L 902 1502 L 802 1502 Z"/>
    <path id="rectangle-134" fill="none" stroke="#000000" stroke-width="4" d="M 902 1602 L 1002 1602 L 1002 1502 L 902 1502 Z"/>
    <path id="rectangle-133" fill="none" stroke="#000000" stroke-width="12" d="M 1002 1602 L 1102 1602 L 1102 1502 L 1002 1502 Z"/>
    <path id="rectangle-132" fill="none" stroke="#000000" stroke-width="12" d="M 1102 1602 L 1202 1602 L 1202 1502 L 1102 1502 Z"/>
    <path id="rectangle-131" fill="none" stroke="#000000" stroke-width="12" d="M 1202 1602 L 1302 1602 L 1302 1502 L 1202 1502 Z"/>
    <path id="rectangle-130" fill="none" stroke="#000000" stroke-width="4" d="M 1302 1602 L 1402 1602 L 1402 1502 L 1302 1502 Z"/>
    <path id="rectangle-129" fill="none" stroke="#000000" stroke-width="12" d="M 1402 1602 L 1502 1602 L 1502 1502 L 1402 1502 Z"/>
    <path id="rectangle-128" fill="none" stroke="#000000" stroke-width="4" d="M 1502 1602 L 1602 1602 L 1602 1502 L 1502 1502 Z"/>
    <path id="rectangle-255" fill="none" stroke="#000000" stroke-width="4" d="M 2 902 L 102 902 L 102 802 L 2 802 Z"/>
    <path id="rectangle-254" fill="none" stroke="#000000" stroke-width="4" d="M 102 902 L 202 902 L 202 802 L 102 802 Z"/>
    <path id="rectangle-253" fill="none" stroke="#000000" stroke-width="4" d="M 202 902 L 302 902 L 302 802 L 202 802 Z"/>
    <path id="rectangle-252" fill="none" stroke="#000000" stroke-width="4" d="M 302 902 L 402 902 L 402 802 L 302 802 Z"/>
    <path id="rectangle-251" fill="none" stroke="#000000" stroke-width="4" d="M 402 902 L 502 902 L 502 802 L 402 802 Z"/>
    <path id="rectangle-250" fill="none" stroke="#000000" stroke-width="12" d="M 502 902 L 602 902 L 602 802 L 502 802 Z"/>
    <path id="rectangle-249" fill="none" stroke="#000000" stroke-width="4" d="M 602 902 L 702 902 L 702 802 L 602 802 Z"/>
    <path id="rectangle-248" fill="none" stroke="#000000" stroke-width="4" d="M 702 902 L 802 902 L 802 802 L 702 802 Z"/>
    <path id="rectangle-247" fill="none" stroke="#000000" stroke-width="4" d="M 2 1002 L 102 1002 L 102 902 L 2 902 Z"/>
    <path id="rectangle-246" fill="none" stroke="#000000" stroke-width="4" d="M 102 1002 L 202 1002 L 202 902 L 102 902 Z"/>
    <path id="rectangle-245" fill="none" stroke="#000000" stroke-width="4" d="M 202 1002 L 302 1002 L 302 902 L 202 902 Z"/>
    <path id="rectangle-244" fill="none" stroke="#000000" stroke-width="4" d="M 302 1002 L 402 1002 L 402 902 L 302 902 Z"/>
    <path id="rectangle-243" fill="none" stroke="#000000" stroke-width="12" d="M 402 1002 L 502 1002 L 502 902 L 402 902 Z"/>
    <path id="rectangle-242" fill="none" stroke="#000000" stroke-width="4" d="M 502 1002 L 602 1002 L 602 902 L 502 902 Z"/>
    <path id="rectangle-241" fill="none" stroke="#000000" stroke-width="12" d="M 602 1002 L 702 1002 L 702 902 L 602 902 Z"/>
    <path id="rectangle-240" fill="none" stroke="#000000" stroke-width="4" d="M 702 1002 L 802 1002 L 802 902 L 702 902 Z"/>
    <path id="rectangle-239" fill="none" stroke="#000000" stroke-width="4" d="M 2 1102 L 102 1102 L 102 1002 L 2 1002 Z"/>
    <path id="rectangle-238" fill="none" stroke="#000000" stroke-width="4" d="M 102 1102 L 202 1102 L 202 1002 L 102 1002 Z"/>
    <path id="rectangle-237" fill="none" stroke="#000000" stroke-width="4" d="M 202 1102 L 302 1102 L 302 1002 L 202 1002 Z"/>
    <path id="rectangle-236" fill="none" stroke="#000000" stroke-width="12" d="M 302 1102 L 402 1102 L 402 1002 L 302 1002 Z"/>
    <path id="rectangle-235" fill="none" stroke="#000000" stroke-width="4" d="M 402 1102 L 502 1102 L 502 1002 L 402 1002 Z"/>
    <path id="rectangle-234" fill="none" stroke="#000000" stroke-width="4" d="M 502 1102 L 602 1102 L 602 1002 L 502 1002 Z"/>
    <path id="rectangle-233" fill="none" stroke="#000000" stroke-width="4" d="M 602 1102 L 702 1102 L 702 1002 L 602 1002 Z"/>
    <path id="rectangle-232" fill="none" stroke="#000000" stroke-width="12" d="M 702 1102 L 802 1102 L 802 1002 L 702 1002 Z"/>
    <path id="rectangle-231" fill="none" stroke="#000000" stroke-width="4" d="M 2 1202 L 102 1202 L 102 1102 L 2 1102 Z"/>
    <path id="rectangle-230" fill="none" stroke="#000000" stroke-width="4" d="M 102 1202 L 202 1202 L 202 1102 L 102 1102 Z"/>
    <path id="rectangle-229" fill="none" stroke="#000000" stroke-width="12" d="M 202 1202 L 302 1202 L 302 1102 L 202 1102 Z"/>
    <path id="rectangle-228" fill="none" stroke="#000000" stroke-width="4" d="M 302 1202 L 402 1202 L 402 1102 L 302 1102 Z"/>
    <path id="rectangle-227" fill="none" stroke="#000000" stroke-width="4" d="M 402 1202 L 502 1202 L 502 1102 L 402 1102 Z"/>
    <path id="rectangle-226" fill="none" stroke="#000000" stroke-width="4" d="M 502 1202 L 602 1202 L 602 1102 L 502 1102 Z"/>
    <path id="rectangle-225" fill="none" stroke="#000000" stroke-width="4" d="M 602 1202 L 702 1202 L 702 1102 L 602 1102 Z"/>
    <path id="rectangle-224" fill="none" stroke="#000000" stroke-width="4" d="M 702 1202 L 802 1202 L 802 1102 L 702 1102 Z"/>
    <path id="rectangle-223" fill="none" stroke="#000000" stroke-width="4" d="M 2 1302 L 102 1302 L 102 1202 L 2 1202 Z"/>
    <path id="rectangle-222" fill="none" stroke="#000000" stroke-width="4" d="M 102 1302 L 202 1302 L 202 1202 L 102 1202 Z"/>
    <path id="rectangle-221" fill="none" stroke="#000000" stroke-width="12" d="M 202 1302 L 302 1302 L 302 1202 L 202 1202 Z"/>
    <path id="rectangle-220" fill="none" stroke="#000000" stroke-width="4" d="M 302 1302 L 402 1302 L 402 1202 L 302 1202 Z"/>
    <path id="rectangle-219" fill="none" stroke="#000000" stroke-width="4" d="M 402 1302 L 502 1302 L 502 1202 L 402 1202 Z"/>
    <path id="rectangle-218" fill="none" stroke="#000000" stroke-width="4" d="M 502 1302 L 602 1302 L 602 1202 L 502 1202 Z"/>
    <path id="rectangle-217" fill="none" stroke="#000000" stroke-width="4" d="M 602 1302 L 702 1302 L 702 1202 L 602 1202 Z"/>
    <path id="rectangle-216" fill="none" stroke="#000000" stroke-width="4" d="M 702 1302 L 802 1302 L 802 1202 L 702 1202 Z"/>
    <path id="rectangle-215" fill="none" stroke="#000000" stroke-width="4" d="M 2 1402 L 102 1402 L 102 1302 L 2 1302 Z"/>
    <path id="rectangle-214" fill="none" stroke="#000000" stroke-width="4" d="M 102 1402 L 202 1402 L 202 1302 L 102 1302 Z"/>
    <path id="rectangle-213" fill="none" stroke="#000000" stroke-width="12" d="M 202 1402 L 302 1402 L 302 1302 L 202 1302 Z"/>
    <path id="rectangle-212" fill="none" stroke="#000000" stroke-width="4" d="M 302 1402 L 402 1402 L 402 1302 L 302 1302 Z"/>
    <path id="rectangle-211" fill="none" stroke="#000000" stroke-width="4" d="M 402 1402 L 502 1402 L 502 1302 L 402 1302 Z"/>
    <path id="rectangle-210" fill="none" stroke="#000000" stroke-width="4" d="M 502 1402 L 602 1402 L 602 1302 L 502 1302 Z"/>
    <path id="rectangle-209" fill="none" stroke="#000000" stroke-width="4" d="M 602 1402 L 702 1402 L 702 1302 L 602 1302 Z"/>
    <path id="rectangle-208" fill="none" stroke="#000000" stroke-width="4" d="M 702 1402 L 802 1402 L 802 1302 L 702 1302 Z"/>
    <path id="rectangle-207" fill="none" stroke="#000000" stroke-width="4" d="M 2 1502 L 102 1502 L 102 1402 L 2 1402 Z"/>
    <path id="rectangle-206" fill="none" stroke="#000000" stroke-width="4" d="M 102 1502 L 202 1502 L 202 1402 L 102 1402 Z"/>
    <path id="rectangle-205" fill="none" stroke="#000000" stroke-width="12" d="M 202 1502 L 302 1502 L 302 1402 L 202 1402 Z"/>
    <path id="rectangle-204" fill="none" stroke="#000000" stroke-width="4" d="M 302 1502 L 402 1502 L 402 1402 L 302 1402 Z"/>
    <path id="rectangle-203" fill="none" stroke="#000000" stroke-width="4" d="M 402 1502 L 502 1502 L 502 1402 L 402 1402 Z"/>
    <path id="rectangle-202" fill="none" stroke="#000000" stroke-width="12" d="M 502 1502 L 602 1502 L 602 1402 L 502 1402 Z"/>
    <path id="rectangle-201" fill="none" stroke="#000000" stroke-width="4" d="M 602 1502 L 702 1502 L 702 1402 L 602 1402 Z"/>
    <path id="rectangle-200" fill="none" stroke="#000000" stroke-width="4" d="M 702 1502 L 802 1502 L 802 1402 L 702 1402 Z"/>
    <path id="rectangle-199" fill="none" stroke="#000000" stroke-width="4" d="M 2 1602 L 102 1602 L 102 1502 L 2 1502 Z"/>
    <path id="rectangle-198" fill="none" stroke="#000000" stroke-width="4" d="M 102 1602 L 202 1602 L 202 1502 L 102 1502 Z"/>
    <path id="rectangle-197" fill="none" stroke="#000000" stroke-width="12" d="M 202 1602 L 302 1602 L 302 1502 L 202 1502 Z"/>
    <path id="rectangle-196" fill="none" stroke="#000000" stroke-width="4" d="M 302 1602 L 402 1602 L 402 1502 L 302 1502 Z"/>
    <path id="rectangle-195" fill="none" stroke="#000000" stroke-width="4" d="M 402 1602 L 502 1602 L 502 1502 L 402 1502 Z"/>
    <path id="rectangle-194" fill="none" stroke="#000000" stroke-width="12" d="M 502 1602 L 602 1602 L 602 1502 L 502 1502 Z"/>
    <path id="rectangle-193" fill="none" stroke="#000000" stroke-width="4" d="M 602 1602 L 702 1602 L 702 1502 L 602 1502 Z"/>
    <path id="rectangle-192" fill="none" stroke="#000000" stroke-width="4" d="M 702 1602 L 802 1602 L 802 1502 L 702 1502 Z"/>
</svg>
